<mxfile host="app.diagrams.net" modified="2024-04-23T07:15:09.726Z" agent="Mozilla/5.0 (Windows NT 10.0; Win64; x64) AppleWebKit/537.36 (KHTML, like Gecko) Chrome/123.0.0.0 Safari/537.36" version="24.2.8" etag="9Ptxi40bfL9pbU7ybhjJ" type="github">
  <diagram name="Page-1" id="osuI49W9oHncI5JM7-MQ">
    <mxGraphModel>
      <root>
        <mxCell id="0" />
        <mxCell id="1" parent="0" />
      </root>
    </mxGraphModel>
  </diagram>
</mxfile>
